<?xml version="1.0" encoding="UTF-8"?> <svg xmlns="http://www.w3.org/2000/svg" width="401" height="400" viewBox="0 0 401 400" fill="none"> <path d="M230.292 108.72L224.597 108.257C224.513 108.25 224.428 108.261 224.348 108.289C224.268 108.316 224.194 108.36 224.131 108.417C224.069 108.474 224.019 108.543 223.984 108.621C223.949 108.698 223.931 108.781 223.929 108.866L223.866 114.579C223.865 114.664 223.846 114.748 223.811 114.825C223.777 114.903 223.726 114.973 223.663 115.03C223.6 115.087 223.526 115.131 223.446 115.158C223.365 115.186 223.28 115.197 223.195 115.19L217.501 114.726C217.416 114.719 217.331 114.73 217.251 114.757C217.17 114.785 217.096 114.829 217.033 114.886C216.97 114.943 216.92 115.013 216.885 115.091C216.85 115.168 216.832 115.252 216.831 115.337L216.767 121.05C216.766 121.135 216.747 121.218 216.713 121.295C216.678 121.372 216.628 121.442 216.565 121.499C216.502 121.556 216.429 121.6 216.349 121.627C216.269 121.655 216.184 121.665 216.099 121.659L210.403 121.197C210.318 121.191 210.234 121.202 210.153 121.229C210.073 121.257 210 121.3 209.937 121.357C209.874 121.414 209.824 121.484 209.789 121.561C209.755 121.638 209.736 121.722 209.735 121.806L209.671 127.519C209.67 127.604 209.652 127.688 209.617 127.766C209.582 127.843 209.532 127.913 209.469 127.97C209.406 128.028 209.332 128.071 209.252 128.099C209.171 128.126 209.086 128.137 209.001 128.13L203.307 127.667C203.222 127.66 203.137 127.671 203.057 127.698C202.977 127.726 202.904 127.769 202.841 127.826C202.778 127.884 202.728 127.953 202.693 128.03C202.659 128.107 202.64 128.191 202.639 128.275L202.591 133.335C202.589 133.419 202.571 133.503 202.536 133.58C202.501 133.657 202.451 133.726 202.388 133.784C202.326 133.841 202.252 133.884 202.172 133.912C202.092 133.939 202.007 133.95 201.923 133.943V133.943C201.743 133.928 201.576 133.846 201.454 133.712C201.333 133.579 201.266 133.405 201.267 133.224L201.327 126.859C201.328 126.775 201.347 126.691 201.382 126.614C201.416 126.537 201.467 126.467 201.529 126.41C201.592 126.353 201.665 126.31 201.745 126.282C201.826 126.255 201.91 126.244 201.995 126.251L207.689 126.714C207.774 126.721 207.859 126.71 207.94 126.683C208.02 126.655 208.094 126.611 208.157 126.554C208.22 126.497 208.27 126.427 208.305 126.35C208.34 126.272 208.358 126.188 208.359 126.103L208.423 120.39C208.424 120.306 208.443 120.222 208.478 120.145C208.512 120.068 208.563 119.998 208.625 119.941C208.688 119.884 208.761 119.841 208.841 119.813C208.922 119.786 209.006 119.775 209.091 119.781L214.787 120.243C214.872 120.249 214.957 120.238 215.037 120.211C215.117 120.183 215.191 120.14 215.253 120.083C215.316 120.026 215.366 119.956 215.401 119.879C215.435 119.802 215.454 119.718 215.455 119.634L215.519 113.921C215.52 113.836 215.538 113.752 215.573 113.674C215.608 113.597 215.658 113.527 215.721 113.47C215.784 113.413 215.858 113.369 215.939 113.341C216.019 113.314 216.104 113.303 216.189 113.31L221.884 113.773C221.968 113.78 222.054 113.77 222.134 113.742C222.215 113.715 222.289 113.671 222.351 113.614C222.414 113.556 222.465 113.487 222.499 113.409C222.534 113.332 222.553 113.248 222.554 113.163L222.627 107.424C222.629 107.339 222.647 107.256 222.682 107.179C222.717 107.101 222.767 107.032 222.83 106.975C222.892 106.918 222.966 106.874 223.046 106.847C223.126 106.819 223.211 106.809 223.295 106.815L228.99 107.279C229.074 107.285 229.16 107.275 229.24 107.247C229.321 107.22 229.395 107.176 229.457 107.119C229.52 107.061 229.571 106.992 229.606 106.914C229.64 106.837 229.659 106.753 229.66 106.668L229.708 101.608C229.709 101.524 229.728 101.44 229.762 101.363C229.797 101.286 229.847 101.217 229.91 101.159C229.973 101.102 230.046 101.059 230.126 101.031C230.206 101.004 230.291 100.993 230.376 101V101C230.554 101.017 230.719 101.1 230.84 101.233C230.961 101.365 231.028 101.537 231.029 101.716L230.96 108.094C230.961 108.18 230.945 108.266 230.911 108.345C230.877 108.425 230.827 108.496 230.764 108.555C230.701 108.614 230.627 108.659 230.545 108.688C230.464 108.716 230.377 108.727 230.292 108.72Z" fill="#F2543B"></path> <path d="M286.361 232.636L286.123 232.623C286.025 232.619 285.928 232.596 285.839 232.554C285.75 232.513 285.67 232.454 285.604 232.381C285.538 232.309 285.487 232.224 285.454 232.131C285.421 232.039 285.406 231.941 285.411 231.843L285.866 222.158C285.876 221.961 285.964 221.775 286.111 221.641C286.257 221.508 286.45 221.437 286.648 221.445C286.68 221.448 286.711 221.447 286.742 221.443L287.633 221.35L287.637 221.488L287.138 231.927C287.128 232.124 287.04 232.308 286.895 232.441C286.749 232.574 286.557 232.644 286.361 232.636Z" fill="#F6B391"></path> <path d="M281.529 243.009L281.293 242.998C281.195 242.994 281.098 242.97 281.009 242.929C280.92 242.887 280.84 242.828 280.774 242.755C280.707 242.682 280.656 242.597 280.623 242.505C280.59 242.412 280.575 242.314 280.58 242.215L282.165 208.297C282.169 208.198 282.193 208.102 282.235 208.012C282.277 207.923 282.336 207.843 282.409 207.776C282.482 207.71 282.567 207.659 282.66 207.625C282.752 207.592 282.851 207.577 282.949 207.581L283.185 207.592C283.284 207.596 283.38 207.62 283.469 207.662C283.559 207.703 283.639 207.762 283.705 207.835C283.771 207.908 283.823 207.993 283.856 208.086C283.889 208.178 283.904 208.277 283.899 208.375L282.314 242.294C282.309 242.392 282.285 242.489 282.244 242.578C282.202 242.667 282.143 242.747 282.07 242.814C281.997 242.88 281.912 242.932 281.819 242.965C281.726 242.999 281.628 243.013 281.529 243.009V243.009Z" fill="#F6B391"></path> <path d="M276.99 247.143L276.752 247.13C276.555 247.12 276.369 247.032 276.236 246.886C276.102 246.74 276.032 246.547 276.041 246.349L278.17 200.805C278.174 200.707 278.198 200.61 278.24 200.521C278.281 200.432 278.34 200.352 278.413 200.286C278.486 200.22 278.571 200.168 278.663 200.135C278.756 200.102 278.854 200.087 278.952 200.092L279.19 200.1C279.288 200.104 279.385 200.128 279.474 200.169C279.563 200.211 279.643 200.27 279.709 200.342C279.775 200.415 279.826 200.5 279.859 200.592C279.892 200.685 279.907 200.783 279.902 200.881L277.775 246.428C277.764 246.626 277.676 246.812 277.529 246.946C277.382 247.08 277.189 247.151 276.99 247.143V247.143Z" fill="#F6B391"></path> <path d="M272.53 249.599L272.292 249.587C272.194 249.582 272.098 249.559 272.009 249.517C271.92 249.476 271.84 249.417 271.774 249.345C271.708 249.272 271.656 249.187 271.623 249.095C271.59 249.002 271.576 248.904 271.581 248.806L274.094 195.029C274.098 194.931 274.122 194.835 274.164 194.745C274.205 194.656 274.264 194.576 274.337 194.51C274.41 194.444 274.495 194.393 274.587 194.359C274.68 194.326 274.778 194.311 274.876 194.316L275.114 194.325C275.312 194.335 275.498 194.422 275.631 194.568C275.764 194.714 275.834 194.907 275.826 195.105L273.312 248.882C273.303 249.081 273.216 249.268 273.069 249.402C272.923 249.537 272.729 249.607 272.53 249.599V249.599Z" fill="#F6B391"></path> <path d="M268.111 251.15L267.873 251.137C267.675 251.128 267.489 251.041 267.355 250.895C267.222 250.748 267.152 250.555 267.161 250.357L269.973 190.169C269.977 190.071 270.001 189.974 270.042 189.885C270.084 189.796 270.143 189.716 270.216 189.65C270.288 189.584 270.373 189.532 270.466 189.499C270.558 189.466 270.657 189.451 270.755 189.456L270.993 189.464C271.091 189.469 271.188 189.492 271.277 189.534C271.366 189.576 271.446 189.635 271.513 189.707C271.579 189.78 271.63 189.865 271.664 189.958C271.697 190.051 271.711 190.149 271.707 190.247L268.893 250.433C268.884 250.632 268.796 250.819 268.65 250.953C268.503 251.087 268.309 251.158 268.111 251.15V251.15Z" fill="#F6B391"></path> <path d="M263.719 252.103L263.481 252.094C263.383 252.09 263.286 252.066 263.197 252.024C263.108 251.983 263.028 251.924 262.961 251.851C262.895 251.778 262.844 251.693 262.811 251.601C262.777 251.508 262.763 251.409 262.768 251.311L265.825 185.917C265.829 185.819 265.853 185.722 265.895 185.633C265.937 185.544 265.996 185.464 266.069 185.397C266.141 185.331 266.227 185.279 266.319 185.246C266.412 185.212 266.511 185.198 266.609 185.202L266.847 185.211C267.045 185.221 267.231 185.308 267.364 185.454C267.497 185.601 267.567 185.794 267.559 185.991L264.502 251.39C264.497 251.488 264.474 251.584 264.432 251.673C264.39 251.762 264.331 251.842 264.259 251.908C264.186 251.975 264.101 252.026 264.008 252.059C263.916 252.093 263.818 252.107 263.719 252.103V252.103Z" fill="#F6B391"></path> <path d="M259.346 252.633L259.106 252.622C258.907 252.613 258.721 252.525 258.587 252.379C258.453 252.232 258.383 252.038 258.392 251.84L261.654 182.113C261.658 182.015 261.682 181.919 261.723 181.83C261.765 181.741 261.824 181.661 261.897 181.594C261.969 181.528 262.054 181.477 262.147 181.444C262.239 181.41 262.338 181.396 262.436 181.4L262.674 181.409C262.772 181.413 262.868 181.437 262.957 181.478C263.046 181.52 263.126 181.578 263.192 181.651C263.259 181.723 263.31 181.808 263.343 181.901C263.376 181.993 263.39 182.091 263.386 182.19L260.133 251.912C260.129 252.011 260.106 252.108 260.064 252.199C260.023 252.289 259.964 252.37 259.89 252.437C259.817 252.504 259.731 252.556 259.638 252.59C259.544 252.624 259.445 252.638 259.346 252.633V252.633Z" fill="#F6B391"></path> <path d="M254.987 252.817L254.746 252.806C254.648 252.802 254.552 252.779 254.464 252.737C254.375 252.696 254.295 252.637 254.229 252.565C254.163 252.493 254.112 252.408 254.079 252.316C254.046 252.223 254.032 252.125 254.037 252.028L257.464 178.657C257.468 178.558 257.492 178.462 257.534 178.373C257.576 178.283 257.635 178.203 257.708 178.137C257.781 178.07 257.866 178.019 257.959 177.985C258.051 177.952 258.15 177.937 258.248 177.942L258.486 177.95C258.585 177.954 258.681 177.978 258.77 178.019C258.859 178.061 258.939 178.12 259.005 178.192C259.071 178.265 259.122 178.35 259.155 178.442C259.188 178.535 259.203 178.633 259.198 178.731L255.769 252.104C255.759 252.302 255.672 252.488 255.525 252.622C255.378 252.755 255.185 252.826 254.987 252.817V252.817Z" fill="#F6B391"></path> <path d="M250.644 252.73L250.406 252.722C250.208 252.712 250.021 252.624 249.887 252.478C249.754 252.331 249.684 252.137 249.693 251.939L253.267 175.483C253.277 175.285 253.364 175.098 253.511 174.965C253.658 174.831 253.851 174.761 254.049 174.77L254.29 174.78C254.388 174.785 254.484 174.808 254.573 174.85C254.662 174.891 254.742 174.95 254.808 175.022C254.874 175.095 254.925 175.18 254.958 175.272C254.992 175.365 255.006 175.463 255.001 175.561L251.429 252.011C251.425 252.109 251.402 252.207 251.36 252.296C251.318 252.386 251.259 252.467 251.186 252.534C251.114 252.601 251.028 252.652 250.935 252.686C250.842 252.72 250.743 252.735 250.644 252.73V252.73Z" fill="#F6B391"></path> <path d="M246.311 252.413L246.073 252.405C245.874 252.396 245.688 252.308 245.554 252.161C245.42 252.014 245.35 251.821 245.359 251.622L249.066 172.55C249.07 172.452 249.094 172.356 249.135 172.267C249.177 172.178 249.236 172.098 249.309 172.031C249.381 171.965 249.467 171.914 249.559 171.881C249.652 171.847 249.75 171.833 249.848 171.837L250.086 171.846C250.285 171.855 250.471 171.943 250.605 172.09C250.739 172.236 250.809 172.43 250.8 172.629L247.093 251.7C247.089 251.799 247.065 251.895 247.023 251.984C246.982 252.073 246.923 252.153 246.85 252.219C246.777 252.286 246.692 252.337 246.6 252.37C246.507 252.404 246.409 252.418 246.311 252.413V252.413Z" fill="#F6B391"></path> <path d="M241.989 251.903L241.751 251.894C241.553 251.885 241.366 251.798 241.233 251.652C241.1 251.505 241.03 251.312 241.039 251.114L244.841 169.849C244.85 169.651 244.938 169.465 245.084 169.331C245.231 169.198 245.425 169.128 245.623 169.136L245.861 169.149C245.959 169.153 246.055 169.177 246.144 169.218C246.233 169.26 246.313 169.319 246.379 169.391C246.445 169.464 246.496 169.549 246.53 169.641C246.563 169.734 246.577 169.832 246.572 169.93L242.771 251.194C242.766 251.292 242.742 251.388 242.7 251.477C242.658 251.565 242.599 251.645 242.526 251.71C242.454 251.776 242.369 251.827 242.277 251.86C242.184 251.893 242.087 251.908 241.989 251.903V251.903Z" fill="#F6B391"></path> <path d="M237.674 251.231L237.436 251.218C237.338 251.213 237.241 251.19 237.152 251.148C237.063 251.106 236.983 251.048 236.916 250.975C236.85 250.902 236.799 250.817 236.765 250.724C236.732 250.632 236.718 250.533 236.722 250.435L240.598 167.414C240.608 167.216 240.695 167.03 240.842 166.896C240.989 166.763 241.182 166.693 241.38 166.701L241.618 166.714C241.716 166.718 241.813 166.742 241.902 166.783C241.991 166.825 242.071 166.884 242.137 166.956C242.203 167.029 242.254 167.114 242.287 167.206C242.32 167.299 242.335 167.397 242.33 167.495L238.456 250.518C238.446 250.715 238.358 250.901 238.211 251.035C238.065 251.168 237.872 251.239 237.674 251.231V251.231Z" fill="#F6B391"></path> <path d="M233.367 250.392L233.127 250.381C232.929 250.372 232.743 250.285 232.61 250.139C232.476 249.992 232.406 249.799 232.416 249.601L236.369 165.214C236.373 165.116 236.397 165.02 236.438 164.93C236.48 164.841 236.539 164.761 236.612 164.695C236.684 164.629 236.769 164.578 236.862 164.544C236.955 164.511 237.053 164.496 237.151 164.501L237.389 164.51C237.487 164.514 237.584 164.538 237.673 164.579C237.762 164.621 237.843 164.68 237.909 164.753C237.975 164.825 238.026 164.91 238.06 165.003C238.093 165.096 238.108 165.194 238.103 165.293L234.149 249.679C234.139 249.877 234.051 250.063 233.905 250.196C233.758 250.33 233.565 250.4 233.367 250.392V250.392Z" fill="#F6B391"></path> <path d="M229.065 249.421L228.827 249.412C228.628 249.402 228.442 249.314 228.309 249.168C228.175 249.021 228.105 248.828 228.113 248.63L232.106 163.258C232.116 163.06 232.203 162.873 232.35 162.74C232.496 162.606 232.69 162.536 232.888 162.545L233.126 162.558C233.224 162.561 233.321 162.584 233.41 162.626C233.499 162.667 233.579 162.726 233.646 162.799C233.712 162.871 233.763 162.956 233.796 163.049C233.829 163.142 233.843 163.24 233.838 163.338L229.849 248.706C229.839 248.904 229.75 249.09 229.604 249.224C229.457 249.358 229.263 249.429 229.065 249.421V249.421Z" fill="#F6B391"></path> <path d="M224.77 248.325L224.532 248.316C224.434 248.312 224.337 248.289 224.248 248.247C224.159 248.205 224.078 248.146 224.012 248.074C223.946 248.001 223.895 247.916 223.861 247.823C223.828 247.73 223.813 247.632 223.818 247.534L227.839 161.489C227.849 161.29 227.937 161.104 228.084 160.97C228.231 160.836 228.425 160.765 228.623 160.774L228.859 160.784C229.058 160.794 229.244 160.881 229.378 161.028C229.512 161.175 229.582 161.369 229.573 161.567L225.552 247.612C225.548 247.71 225.524 247.807 225.483 247.896C225.441 247.985 225.382 248.065 225.309 248.131C225.237 248.197 225.152 248.248 225.059 248.282C224.966 248.315 224.868 248.33 224.77 248.325V248.325Z" fill="#F6B391"></path> <path d="M220.479 247.118L220.241 247.105C220.143 247.101 220.046 247.077 219.957 247.036C219.868 246.994 219.788 246.936 219.722 246.863C219.656 246.791 219.605 246.706 219.572 246.613C219.539 246.521 219.524 246.423 219.529 246.324L223.572 159.904C223.582 159.706 223.671 159.52 223.817 159.386C223.964 159.252 224.158 159.181 224.356 159.189L224.596 159.2C224.794 159.21 224.98 159.298 225.113 159.444C225.246 159.59 225.316 159.783 225.308 159.981L221.278 246.406C221.274 246.505 221.249 246.603 221.206 246.693C221.163 246.783 221.102 246.863 221.028 246.93C220.954 246.996 220.867 247.047 220.772 247.079C220.678 247.112 220.578 247.125 220.479 247.118Z" fill="#F6B391"></path> <path d="M216.175 246.067L215.937 246.054C215.839 246.05 215.743 246.027 215.654 245.985C215.565 245.944 215.485 245.885 215.419 245.813C215.353 245.74 215.302 245.655 215.268 245.563C215.235 245.47 215.221 245.372 215.226 245.274L219.281 158.491C219.286 158.393 219.309 158.296 219.351 158.207C219.393 158.118 219.452 158.037 219.525 157.971C219.598 157.905 219.683 157.853 219.776 157.82C219.869 157.786 219.967 157.771 220.065 157.776L220.301 157.787C220.4 157.791 220.496 157.815 220.586 157.856C220.675 157.898 220.755 157.957 220.821 158.03C220.887 158.102 220.939 158.187 220.972 158.28C221.005 158.373 221.02 158.471 221.015 158.57L216.958 245.35C216.948 245.549 216.861 245.736 216.714 245.87C216.568 246.004 216.374 246.075 216.175 246.067Z" fill="#F6B391"></path> <path d="M211.852 245.592L211.613 245.583C211.415 245.573 211.229 245.485 211.096 245.338C210.962 245.192 210.892 244.998 210.9 244.8L214.992 157.231C215.003 157.033 215.091 156.847 215.238 156.713C215.385 156.579 215.578 156.508 215.777 156.516L216.015 156.529C216.213 156.538 216.399 156.626 216.532 156.772C216.666 156.918 216.735 157.112 216.726 157.31L212.632 244.876C212.623 245.074 212.536 245.261 212.389 245.395C212.243 245.529 212.05 245.6 211.852 245.592V245.592Z" fill="#F6B391"></path> <path d="M207.499 245.681L207.263 245.671C207.064 245.661 206.878 245.574 206.744 245.427C206.61 245.28 206.54 245.086 206.549 244.888L210.7 156.12C210.71 155.922 210.798 155.736 210.944 155.602C211.091 155.469 211.284 155.398 211.483 155.407L211.72 155.42C211.819 155.424 211.915 155.447 212.005 155.488C212.094 155.53 212.174 155.589 212.24 155.661C212.306 155.734 212.357 155.819 212.39 155.912C212.423 156.004 212.437 156.103 212.432 156.201L208.283 244.966C208.279 245.065 208.255 245.161 208.213 245.251C208.171 245.34 208.112 245.42 208.039 245.486C207.966 245.553 207.881 245.604 207.788 245.638C207.696 245.671 207.597 245.686 207.499 245.681V245.681Z" fill="#F6B391"></path> <path d="M203.126 246.337L202.89 246.326C202.691 246.317 202.505 246.229 202.371 246.083C202.237 245.936 202.167 245.742 202.176 245.544L206.398 155.149C206.402 155.051 206.426 154.954 206.467 154.865C206.509 154.776 206.568 154.696 206.641 154.63C206.713 154.564 206.798 154.512 206.891 154.479C206.984 154.446 207.082 154.431 207.18 154.436L207.418 154.445C207.617 154.454 207.803 154.542 207.937 154.688C208.071 154.835 208.141 155.029 208.132 155.227L203.906 245.626C203.896 245.823 203.808 246.009 203.662 246.142C203.516 246.275 203.323 246.345 203.126 246.337Z" fill="#F6B391"></path> <path d="M198.72 247.553L198.482 247.545C198.384 247.541 198.287 247.517 198.198 247.475C198.109 247.434 198.029 247.375 197.962 247.302C197.896 247.229 197.845 247.144 197.811 247.051C197.778 246.959 197.763 246.86 197.768 246.762L202.091 154.319C202.1 154.121 202.189 153.934 202.336 153.8C202.483 153.666 202.677 153.596 202.875 153.604L203.113 153.617C203.311 153.627 203.496 153.715 203.63 153.861C203.763 154.007 203.833 154.2 203.825 154.398L199.502 246.84C199.493 247.038 199.405 247.225 199.258 247.358C199.112 247.492 198.918 247.562 198.72 247.553Z" fill="#F6B391"></path> <path d="M194.291 249.301L194.053 249.292C193.855 249.282 193.669 249.194 193.535 249.047C193.402 248.901 193.331 248.707 193.34 248.509L197.777 153.634C197.786 153.435 197.874 153.249 198.021 153.115C198.168 152.981 198.363 152.91 198.561 152.919L198.799 152.932C198.997 152.941 199.183 153.028 199.317 153.175C199.45 153.321 199.52 153.514 199.511 153.712L195.073 248.588C195.069 248.686 195.045 248.782 195.004 248.871C194.962 248.96 194.903 249.04 194.831 249.107C194.758 249.173 194.673 249.224 194.58 249.257C194.488 249.291 194.39 249.305 194.291 249.301V249.301Z" fill="#F6B391"></path> <path d="M189.834 251.567L189.596 251.554C189.497 251.55 189.401 251.527 189.312 251.485C189.223 251.444 189.143 251.385 189.077 251.312C189.011 251.24 188.96 251.155 188.927 251.062C188.894 250.97 188.879 250.872 188.884 250.774L193.464 153.06C193.474 152.862 193.562 152.677 193.709 152.543C193.855 152.409 194.048 152.339 194.246 152.347L194.482 152.358C194.58 152.362 194.677 152.386 194.766 152.427C194.855 152.469 194.935 152.528 195.002 152.601C195.068 152.673 195.119 152.759 195.153 152.851C195.186 152.944 195.2 153.042 195.196 153.141L190.618 250.852C190.608 251.051 190.52 251.237 190.373 251.371C190.226 251.505 190.032 251.576 189.834 251.567V251.567Z" fill="#F6B391"></path> <path d="M185.364 254.33L185.126 254.317C184.927 254.308 184.741 254.22 184.607 254.074C184.473 253.927 184.403 253.733 184.412 253.534L189.128 152.65C189.133 152.551 189.157 152.455 189.198 152.365C189.24 152.276 189.299 152.196 189.372 152.13C189.445 152.063 189.53 152.012 189.623 151.978C189.716 151.945 189.814 151.93 189.913 151.935L190.151 151.943C190.349 151.953 190.535 152.041 190.669 152.188C190.802 152.334 190.873 152.528 190.865 152.726L186.148 253.611C186.144 253.709 186.12 253.806 186.078 253.896C186.037 253.986 185.978 254.066 185.905 254.133C185.832 254.2 185.747 254.252 185.654 254.285C185.561 254.319 185.462 254.335 185.364 254.33V254.33Z" fill="#F6B391"></path> <path d="M180.865 257.567L180.627 257.554C180.429 257.545 180.242 257.457 180.109 257.311C179.976 257.164 179.906 256.971 179.915 256.773L184.805 152.358C184.809 152.259 184.833 152.163 184.875 152.073C184.916 151.984 184.976 151.904 185.048 151.838C185.121 151.771 185.207 151.72 185.299 151.686C185.392 151.653 185.49 151.638 185.589 151.643L185.827 151.651C186.025 151.661 186.21 151.749 186.344 151.895C186.477 152.041 186.547 152.234 186.539 152.432L181.651 256.849C181.641 257.048 181.553 257.236 181.406 257.37C181.258 257.504 181.064 257.575 180.865 257.567Z" fill="#F6B391"></path> <path d="M176.343 261.229L176.107 261.218C175.909 261.209 175.722 261.121 175.589 260.974C175.455 260.827 175.385 260.634 175.394 260.435L180.451 152.222C180.461 152.023 180.549 151.837 180.696 151.703C180.843 151.569 181.037 151.498 181.236 151.507L181.474 151.52C181.572 151.524 181.668 151.547 181.757 151.589C181.846 151.63 181.926 151.689 181.992 151.762C182.059 151.834 182.11 151.919 182.143 152.012C182.176 152.104 182.19 152.202 182.185 152.3L177.128 260.513C177.117 260.712 177.029 260.898 176.882 261.032C176.735 261.166 176.542 261.236 176.343 261.229V261.229Z" fill="#F6B391"></path> <path d="M171.813 265.271L171.577 265.261C171.379 265.251 171.192 265.164 171.058 265.017C170.925 264.87 170.854 264.676 170.863 264.478L176.12 152.197C176.13 151.999 176.218 151.814 176.364 151.68C176.511 151.546 176.704 151.476 176.902 151.484L177.142 151.495C177.34 151.505 177.525 151.592 177.659 151.739C177.792 151.885 177.862 152.078 177.854 152.276L172.595 264.554C172.591 264.653 172.568 264.749 172.526 264.839C172.484 264.928 172.426 265.008 172.353 265.075C172.28 265.142 172.195 265.193 172.102 265.227C172.01 265.261 171.911 265.276 171.813 265.271V265.271Z" fill="#F6B391"></path> <path d="M167.267 269.633L167.027 269.622C166.929 269.617 166.832 269.594 166.743 269.552C166.654 269.51 166.574 269.452 166.507 269.379C166.441 269.306 166.39 269.221 166.356 269.128C166.323 269.036 166.309 268.937 166.313 268.839L171.748 152.362C171.752 152.264 171.776 152.167 171.818 152.078C171.86 151.989 171.919 151.909 171.992 151.842C172.065 151.776 172.15 151.724 172.243 151.691C172.336 151.658 172.434 151.643 172.532 151.647L172.768 151.658C172.966 151.667 173.152 151.754 173.286 151.901C173.419 152.047 173.489 152.241 173.48 152.439L168.037 268.906C168.031 269.104 167.947 269.292 167.802 269.428C167.658 269.564 167.466 269.638 167.267 269.633V269.633Z" fill="#F6B391"></path> <path d="M162.695 274.152L162.459 274.142C162.36 274.137 162.264 274.114 162.174 274.072C162.085 274.03 162.005 273.971 161.939 273.899C161.873 273.826 161.821 273.741 161.788 273.648C161.755 273.555 161.74 273.457 161.745 273.359L167.388 152.655C167.397 152.457 167.485 152.27 167.632 152.136C167.78 152.002 167.974 151.931 168.172 151.94L168.408 151.951C168.606 151.96 168.793 152.048 168.927 152.194C169.061 152.341 169.131 152.535 169.122 152.734L163.479 273.437C163.474 273.536 163.451 273.632 163.409 273.721C163.367 273.811 163.308 273.891 163.235 273.957C163.162 274.024 163.077 274.075 162.984 274.109C162.891 274.142 162.793 274.157 162.695 274.152Z" fill="#F6B391"></path> <path d="M158.15 278.408L157.914 278.398C157.816 278.393 157.719 278.37 157.63 278.328C157.54 278.286 157.46 278.228 157.394 278.155C157.328 278.082 157.277 277.997 157.243 277.904C157.21 277.812 157.195 277.713 157.2 277.615L163.027 153.099C163.032 153.001 163.055 152.904 163.097 152.815C163.139 152.726 163.197 152.646 163.27 152.58C163.343 152.514 163.428 152.462 163.52 152.429C163.613 152.396 163.711 152.381 163.809 152.386L164.047 152.395C164.245 152.404 164.432 152.491 164.565 152.637C164.699 152.784 164.768 152.977 164.759 153.175L158.934 277.693C158.924 277.891 158.835 278.078 158.689 278.212C158.542 278.345 158.348 278.416 158.15 278.408V278.408Z" fill="#F6B391"></path> <path d="M153.664 281.412L153.439 281.404C153.241 281.393 153.055 281.306 152.921 281.159C152.787 281.012 152.717 280.819 152.725 280.621L158.658 153.718C158.668 153.52 158.756 153.334 158.902 153.2C159.049 153.066 159.242 152.996 159.44 153.005L159.681 153.016C159.779 153.02 159.876 153.044 159.965 153.085C160.054 153.127 160.134 153.186 160.201 153.259C160.267 153.331 160.318 153.417 160.351 153.509C160.385 153.602 160.399 153.7 160.394 153.799L154.446 280.699C154.436 280.896 154.348 281.082 154.201 281.216C154.055 281.349 153.862 281.42 153.664 281.412V281.412Z" fill="#F6B391"></path> <path d="M149.208 283.735L148.97 283.726C148.772 283.716 148.586 283.628 148.452 283.482C148.318 283.335 148.248 283.142 148.256 282.944L154.271 154.499C154.28 154.301 154.368 154.114 154.515 153.98C154.662 153.846 154.857 153.776 155.055 153.784L155.293 153.797C155.391 153.801 155.488 153.825 155.577 153.866C155.666 153.908 155.745 153.967 155.812 154.039C155.878 154.112 155.929 154.197 155.962 154.289C155.995 154.382 156.01 154.48 156.005 154.578L149.992 283.02C149.983 283.218 149.895 283.405 149.748 283.539C149.601 283.673 149.407 283.744 149.208 283.735V283.735Z" fill="#F6B391"></path> <path d="M144.775 285.565L144.537 285.556C144.339 285.547 144.153 285.46 144.02 285.314C143.886 285.167 143.816 284.974 143.826 284.776L149.869 155.486C149.873 155.388 149.897 155.292 149.939 155.202C149.981 155.113 150.039 155.033 150.112 154.967C150.185 154.901 150.27 154.85 150.362 154.816C150.455 154.783 150.553 154.768 150.651 154.773L150.889 154.782C151.087 154.791 151.274 154.878 151.407 155.024C151.54 155.171 151.61 155.364 151.601 155.562L145.558 284.852C145.553 284.95 145.53 285.046 145.488 285.136C145.446 285.225 145.387 285.305 145.315 285.371C145.242 285.437 145.157 285.488 145.064 285.522C144.972 285.555 144.874 285.57 144.775 285.565V285.565Z" fill="#F6B391"></path> <path d="M140.364 286.996L140.123 286.985C139.925 286.976 139.739 286.889 139.606 286.742C139.472 286.596 139.403 286.403 139.412 286.205L145.468 156.657C145.477 156.459 145.565 156.272 145.712 156.138C145.859 156.004 146.053 155.934 146.252 155.942L146.49 155.955C146.588 155.959 146.684 155.983 146.773 156.024C146.862 156.066 146.942 156.124 147.008 156.197C147.075 156.27 147.126 156.355 147.159 156.447C147.192 156.539 147.206 156.638 147.201 156.736L141.139 286.285C141.129 286.481 141.042 286.666 140.897 286.799C140.752 286.932 140.56 287.003 140.364 286.996V286.996Z" fill="#F6B391"></path> <path d="M135.966 288.042L135.73 288.031C135.532 288.022 135.345 287.934 135.211 287.787C135.077 287.641 135.007 287.447 135.016 287.248L141.047 158.041C141.058 157.843 141.146 157.657 141.293 157.523C141.44 157.389 141.633 157.318 141.832 157.326L142.07 157.339C142.268 157.348 142.454 157.435 142.587 157.582C142.721 157.728 142.79 157.922 142.781 158.12L136.75 287.327C136.746 287.425 136.722 287.522 136.68 287.611C136.638 287.7 136.579 287.78 136.506 287.847C136.434 287.913 136.348 287.965 136.256 287.998C136.163 288.032 136.064 288.046 135.966 288.042V288.042Z" fill="#F6B391"></path> <path d="M131.581 288.721L131.345 288.71C131.147 288.701 130.96 288.613 130.826 288.467C130.693 288.32 130.622 288.126 130.631 287.928L136.626 159.682C136.636 159.484 136.725 159.297 136.871 159.163C137.018 159.03 137.212 158.959 137.41 158.967L137.648 158.98C137.846 158.989 138.032 159.076 138.166 159.222C138.299 159.369 138.369 159.562 138.36 159.76L132.365 288.006C132.361 288.104 132.337 288.201 132.295 288.29C132.253 288.38 132.194 288.46 132.121 288.526C132.049 288.593 131.963 288.644 131.871 288.678C131.778 288.711 131.679 288.726 131.581 288.721Z" fill="#F6B391"></path> <path d="M127.217 289.009L126.981 288.999C126.883 288.995 126.786 288.971 126.697 288.929C126.608 288.888 126.527 288.829 126.461 288.756C126.395 288.683 126.344 288.598 126.31 288.505C126.277 288.413 126.262 288.314 126.267 288.216L132.193 161.571C132.202 161.373 132.29 161.187 132.436 161.053C132.583 160.919 132.777 160.849 132.975 160.858L133.215 160.869C133.413 160.879 133.598 160.966 133.732 161.112C133.865 161.259 133.935 161.452 133.926 161.649L128.001 288.294C127.991 288.493 127.903 288.68 127.756 288.814C127.609 288.948 127.415 289.018 127.217 289.009V289.009Z" fill="#F6B391"></path> <path d="M122.88 288.901L122.642 288.892C122.444 288.882 122.257 288.794 122.124 288.648C121.99 288.501 121.92 288.308 121.928 288.109L127.743 163.759C127.752 163.561 127.84 163.375 127.987 163.241C128.133 163.107 128.327 163.037 128.525 163.046L128.765 163.057C128.863 163.061 128.96 163.085 129.049 163.126C129.138 163.168 129.218 163.226 129.284 163.299C129.35 163.371 129.401 163.456 129.434 163.549C129.467 163.641 129.482 163.739 129.477 163.838L123.664 288.186C123.66 288.284 123.636 288.381 123.594 288.47C123.552 288.559 123.493 288.639 123.42 288.706C123.348 288.772 123.262 288.824 123.17 288.857C123.077 288.891 122.978 288.905 122.88 288.901Z" fill="#F6B391"></path> <path d="M118.559 288.359L118.315 288.348C118.116 288.338 117.93 288.25 117.797 288.104C117.663 287.957 117.593 287.764 117.601 287.565L123.277 166.284C123.282 166.185 123.305 166.089 123.347 166C123.389 165.911 123.448 165.831 123.52 165.765C123.593 165.698 123.678 165.647 123.771 165.614C123.863 165.58 123.961 165.566 124.059 165.571L124.298 165.579C124.396 165.583 124.493 165.607 124.582 165.649C124.671 165.69 124.751 165.749 124.817 165.822C124.884 165.895 124.935 165.98 124.968 166.073C125.002 166.165 125.016 166.264 125.011 166.362L119.346 287.642C119.341 287.741 119.317 287.838 119.275 287.927C119.233 288.017 119.174 288.097 119.101 288.164C119.028 288.23 118.942 288.282 118.849 288.315C118.756 288.349 118.658 288.364 118.559 288.359V288.359Z" fill="#F6B391"></path> <path d="M114.262 287.32L114.022 287.309C113.924 287.305 113.827 287.282 113.738 287.24C113.649 287.199 113.569 287.14 113.503 287.067C113.437 286.995 113.386 286.91 113.353 286.818C113.32 286.725 113.305 286.627 113.31 286.529L118.802 169.21C118.806 169.111 118.83 169.013 118.872 168.923C118.915 168.833 118.974 168.752 119.048 168.685C119.121 168.618 119.207 168.567 119.301 168.533C119.395 168.499 119.494 168.484 119.593 168.489L119.831 168.502C120.029 168.511 120.215 168.598 120.349 168.745C120.482 168.891 120.552 169.084 120.543 169.282L115.049 286.603C115.044 286.702 115.02 286.799 114.978 286.888C114.936 286.978 114.877 287.058 114.804 287.125C114.731 287.191 114.645 287.243 114.552 287.276C114.459 287.31 114.361 287.325 114.262 287.32V287.32Z" fill="#F6B391"></path> <path d="M109.989 285.729L109.751 285.72C109.652 285.716 109.555 285.692 109.466 285.651C109.377 285.609 109.297 285.55 109.231 285.477C109.164 285.405 109.113 285.32 109.08 285.227C109.047 285.134 109.032 285.036 109.037 284.937L114.29 172.575C114.3 172.377 114.388 172.19 114.535 172.056C114.682 171.922 114.876 171.852 115.075 171.86L115.313 171.873C115.411 171.877 115.507 171.901 115.596 171.942C115.685 171.984 115.765 172.043 115.831 172.115C115.897 172.188 115.948 172.273 115.982 172.365C116.015 172.458 116.029 172.556 116.024 172.654L110.771 285.016C110.766 285.114 110.743 285.21 110.701 285.299C110.659 285.389 110.6 285.469 110.528 285.535C110.455 285.601 110.37 285.652 110.278 285.686C110.185 285.719 110.087 285.734 109.989 285.729V285.729Z" fill="#F6B391"></path> <path d="M105.746 283.477L105.508 283.464C105.313 283.456 105.129 283.372 104.996 283.23C104.862 283.088 104.79 282.899 104.794 282.703L109.759 176.493C109.769 176.294 109.857 176.108 110.004 175.974C110.151 175.84 110.345 175.769 110.543 175.778L110.779 175.788C110.978 175.798 111.164 175.885 111.298 176.032C111.432 176.179 111.502 176.373 111.493 176.571L106.526 282.767C106.516 282.964 106.428 283.149 106.282 283.282C106.136 283.416 105.944 283.486 105.746 283.477V283.477Z" fill="#F6B391"></path> <path d="M101.544 280.421L101.306 280.408C101.108 280.399 100.922 280.312 100.789 280.165C100.655 280.019 100.585 279.826 100.595 279.628L105.2 181.055C105.204 180.957 105.228 180.86 105.27 180.771C105.312 180.682 105.371 180.601 105.444 180.535C105.516 180.469 105.602 180.417 105.694 180.384C105.787 180.35 105.886 180.335 105.984 180.34L106.22 180.351C106.418 180.36 106.605 180.448 106.739 180.595C106.873 180.741 106.943 180.935 106.934 181.134L102.324 279.706C102.315 279.904 102.228 280.09 102.082 280.224C101.936 280.359 101.742 280.429 101.544 280.421V280.421Z" fill="#F6B391"></path> <path d="M97.3863 276.338L97.1482 276.329C96.9504 276.319 96.7647 276.232 96.6315 276.086C96.4982 275.939 96.4281 275.746 96.4365 275.549L100.601 186.447C100.606 186.348 100.63 186.252 100.671 186.163C100.713 186.073 100.772 185.993 100.845 185.927C100.918 185.86 101.003 185.809 101.096 185.775C101.189 185.742 101.287 185.727 101.386 185.732L101.622 185.742C101.72 185.747 101.816 185.77 101.905 185.812C101.994 185.853 102.074 185.912 102.14 185.984C102.206 186.057 102.257 186.142 102.291 186.234C102.324 186.327 102.338 186.425 102.333 186.523L98.1707 275.623C98.1662 275.721 98.1424 275.818 98.1006 275.907C98.0587 275.996 97.9996 276.076 97.9268 276.143C97.8539 276.209 97.7686 276.261 97.6759 276.294C97.5831 276.328 97.4847 276.342 97.3863 276.338Z" fill="#F6B391"></path> <path d="M93.2931 270.879L93.055 270.87C92.8564 270.861 92.6699 270.773 92.5361 270.627C92.4023 270.48 92.3323 270.286 92.3413 270.087L95.9433 193.004C95.9539 192.806 96.0421 192.62 96.189 192.486C96.3358 192.352 96.5294 192.282 96.7277 192.289L96.9657 192.302C97.1637 192.311 97.3499 192.399 97.4833 192.545C97.6167 192.691 97.6865 192.885 97.6773 193.083L94.0752 270.166C94.0709 270.264 94.0472 270.36 94.0055 270.449C93.9639 270.539 93.905 270.619 93.8323 270.685C93.7596 270.751 93.6745 270.802 93.582 270.836C93.4894 270.869 93.3913 270.884 93.2931 270.879V270.879Z" fill="#F6B391"></path> <path d="M89.291 263.402L89.0552 263.391C88.9567 263.387 88.8602 263.364 88.7709 263.322C88.6817 263.28 88.6017 263.221 88.5354 263.149C88.469 263.076 88.4178 262.991 88.3845 262.898C88.3512 262.805 88.3366 262.707 88.3415 262.609L91.2045 201.375C91.2142 201.176 91.3022 200.989 91.4493 200.855C91.5963 200.721 91.7903 200.651 91.9889 200.66L92.2268 200.673C92.325 200.677 92.4214 200.7 92.5104 200.742C92.5994 200.783 92.6792 200.842 92.7454 200.914C92.8115 200.987 92.8626 201.072 92.8958 201.164C92.9289 201.257 92.9434 201.355 92.9384 201.453L90.0846 262.679C90.0812 262.779 90.0579 262.877 90.016 262.968C89.974 263.059 89.9143 263.14 89.8403 263.208C89.7663 263.275 89.6796 263.327 89.5853 263.361C89.4909 263.394 89.3909 263.408 89.291 263.402V263.402Z" fill="#F6B391"></path> <path d="M85.4819 251.967L85.2417 251.956C85.1435 251.952 85.0472 251.928 84.9581 251.887C84.8691 251.845 84.7893 251.787 84.7231 251.714C84.657 251.641 84.6059 251.557 84.5727 251.464C84.5396 251.372 84.5251 251.274 84.5301 251.175L86.2721 213.699C86.2765 213.601 86.3003 213.504 86.3422 213.415C86.3841 213.325 86.4431 213.245 86.516 213.179C86.5889 213.112 86.6742 213.061 86.7669 213.028C86.8597 212.994 86.9581 212.979 87.0565 212.984L87.2923 212.995C87.3908 212.999 87.4874 213.023 87.5766 213.064C87.6658 213.106 87.7458 213.165 87.8121 213.238C87.8785 213.31 87.9297 213.395 87.963 213.488C87.9963 213.581 88.0109 213.679 88.006 213.778L86.2619 251.252C86.253 251.45 86.1659 251.636 86.0196 251.77C85.8734 251.904 85.68 251.975 85.4819 251.967V251.967Z" fill="#F6B391"></path> <path d="M96.1562 154.928C100.929 180.596 125.029 190.931 119.276 225.681C113.801 258.705 119.661 278.904 141.887 283.093C161.005 286.698 180.584 274.047 198.782 248.524C208.679 234.641 225.769 227.059 244.99 225.004C271.446 222.184 293.91 210.837 299.465 187.91C305.021 164.982 296.699 126.617 238.028 134.59C216.7 137.483 190.397 130.355 171.465 116.259C151.378 101.315 134.805 103.735 119.794 111.767C111.006 116.465 92.0469 132.817 96.1562 154.928Z" fill="#F2543B"></path> <path d="M296.968 107.411C282.885 104.485 251.773 105.147 230.127 140.027C212.62 168.262 214.427 211.175 247.736 230.689C267.179 242.081 285.527 241.032 298.817 233.438C314.71 224.382 325.625 204.597 317.606 187.722C309.587 170.846 300.956 150.341 317.362 136.998C333.769 123.654 311.053 110.339 296.968 107.411Z" fill="#F6E1AE"></path> <path d="M171.258 130.9C115.182 147.432 99.6127 210.702 112.43 230.8C125.248 250.898 160.895 218.096 179.059 249.256C197.224 280.415 205.101 298.425 235.72 294.808C260.713 291.852 278.37 278.216 286.096 267.784C303.637 244.079 312.698 214.196 292.392 173.373C273.854 136.134 227.174 114.414 171.258 130.9Z" fill="#6DA3C1"></path> <path d="M270.55 186.373C261.035 189.665 246.977 195.622 237.974 210.1C228.97 224.577 224.775 240.438 230.917 261.833C237.059 283.227 252.931 291.795 266.734 294.947C276.47 297.184 293.147 292.052 290.854 275.987C288.562 259.922 292.106 249.69 300.673 241.743C306.442 236.391 328.711 227.42 321.166 203.706C314.455 182.653 285.743 181.115 270.55 186.373Z" fill="#F2543B"></path> <path d="M329.304 201.164C327.712 202.616 326.586 204.507 326.067 206.597C325.548 208.687 325.661 210.883 326.391 212.907C327.12 214.931 328.434 216.691 330.166 217.967C331.898 219.242 333.971 219.974 336.121 220.071C338.272 220.168 340.404 219.626 342.248 218.512C344.093 217.398 345.566 215.763 346.483 213.813C347.4 211.864 347.718 209.687 347.398 207.559C347.078 205.431 346.134 203.447 344.685 201.858C343.723 200.802 342.561 199.946 341.268 199.34C339.974 198.733 338.573 198.388 337.144 198.324C335.716 198.259 334.288 198.477 332.943 198.964C331.598 199.452 330.361 200.199 329.304 201.164Z" fill="#6DA3C1"></path> <path d="M104.847 226.012C111.962 219.525 112.482 208.509 106.008 201.408C99.5333 194.306 88.5163 193.807 81.4006 200.294C74.285 206.781 73.7652 217.797 80.2397 224.899C86.7141 232.001 97.7311 232.499 104.847 226.012Z" fill="#F6E1AE"></path> <path d="M81.2752 230.04C79.5545 229.962 77.8485 230.396 76.3727 231.288C74.897 232.179 73.7178 233.487 72.9844 235.047C72.251 236.607 71.9962 238.348 72.2523 240.05C72.5083 241.753 73.2638 243.341 74.4231 244.612C75.5823 245.884 77.0934 246.782 78.7651 247.194C80.4369 247.606 82.1943 247.513 83.815 246.927C85.4358 246.34 86.8471 245.287 87.8706 243.9C88.8941 242.513 89.4837 240.854 89.565 239.133C89.6189 237.991 89.4473 236.849 89.0599 235.774C88.6725 234.699 88.0769 233.711 87.3071 232.866C86.5373 232.022 85.6084 231.338 84.5735 230.853C83.5385 230.368 82.4177 230.092 81.2752 230.04V230.04Z" fill="#F6E1AE"></path> <path d="M310.918 232.29C310.805 232.285 310.694 232.258 310.591 232.21C310.488 232.162 310.396 232.095 310.319 232.011C310.243 231.927 310.184 231.829 310.146 231.722C310.107 231.615 310.091 231.502 310.097 231.388L310.625 220.136C310.63 220.021 310.657 219.908 310.706 219.804C310.755 219.699 310.824 219.606 310.909 219.528C310.994 219.451 311.093 219.391 311.202 219.352C311.31 219.313 311.425 219.296 311.54 219.302V219.302C311.655 219.307 311.768 219.334 311.872 219.382C311.976 219.431 312.07 219.499 312.147 219.584C312.225 219.669 312.285 219.769 312.323 219.877C312.362 219.985 312.378 220.1 312.372 220.215L311.833 231.456C311.829 231.571 311.802 231.684 311.754 231.789C311.706 231.894 311.637 231.988 311.552 232.066C311.466 232.143 311.366 232.203 311.258 232.242C311.149 232.28 311.034 232.297 310.918 232.29Z" fill="#F6B391"></path> <path d="M306.111 242.386C305.996 242.382 305.883 242.356 305.778 242.307C305.673 242.259 305.579 242.191 305.502 242.105C305.424 242.02 305.365 241.92 305.326 241.812C305.288 241.703 305.272 241.588 305.279 241.473L306.78 209.649C306.784 209.534 306.811 209.42 306.86 209.316C306.908 209.211 306.977 209.117 307.062 209.039C307.147 208.961 307.247 208.902 307.356 208.863C307.465 208.825 307.58 208.808 307.695 208.815V208.815C307.81 208.819 307.923 208.847 308.027 208.895C308.132 208.944 308.225 209.012 308.303 209.097C308.38 209.182 308.44 209.282 308.478 209.39C308.517 209.498 308.534 209.613 308.527 209.728L307.017 241.56C307.005 241.789 306.903 242.005 306.734 242.159C306.564 242.314 306.34 242.395 306.111 242.386V242.386Z" fill="#F6B391"></path> <path d="M301.494 248.308C301.381 248.303 301.27 248.276 301.167 248.228C301.064 248.18 300.972 248.112 300.896 248.028C300.82 247.944 300.761 247.846 300.722 247.74C300.684 247.633 300.667 247.52 300.672 247.407L302.751 203.346C302.755 203.231 302.782 203.117 302.83 203.013C302.879 202.908 302.948 202.814 303.033 202.736C303.118 202.658 303.218 202.598 303.327 202.56C303.436 202.521 303.551 202.505 303.666 202.512V202.512C303.781 202.516 303.895 202.542 303.999 202.59C304.104 202.639 304.198 202.707 304.275 202.792C304.353 202.877 304.413 202.977 304.451 203.086C304.489 203.195 304.505 203.31 304.498 203.425L302.398 247.485C302.393 247.598 302.365 247.71 302.317 247.812C302.269 247.915 302.201 248.008 302.117 248.084C302.033 248.161 301.935 248.22 301.828 248.259C301.721 248.297 301.608 248.314 301.494 248.308V248.308Z" fill="#F6B391"></path> <path d="M296.975 252.244C296.86 252.239 296.748 252.212 296.643 252.164C296.539 252.115 296.445 252.047 296.368 251.962C296.291 251.877 296.231 251.777 296.192 251.669C296.154 251.561 296.137 251.446 296.143 251.331L298.61 199.009C298.614 198.894 298.642 198.781 298.69 198.677C298.739 198.573 298.808 198.479 298.893 198.402C298.978 198.324 299.078 198.264 299.186 198.225C299.294 198.186 299.409 198.169 299.524 198.175C299.64 198.179 299.753 198.206 299.858 198.254C299.962 198.302 300.056 198.371 300.134 198.456C300.211 198.541 300.271 198.641 300.309 198.749C300.348 198.858 300.364 198.973 300.357 199.088L297.879 251.42C297.873 251.534 297.846 251.645 297.798 251.748C297.749 251.85 297.681 251.943 297.598 252.019C297.514 252.096 297.415 252.155 297.309 252.193C297.202 252.232 297.089 252.249 296.975 252.244V252.244Z" fill="#F6B391"></path> <path d="M292.505 255.003C292.392 254.998 292.281 254.97 292.178 254.922C292.075 254.874 291.983 254.806 291.907 254.723C291.831 254.639 291.772 254.541 291.733 254.434C291.695 254.327 291.678 254.214 291.683 254.101L294.431 195.864C294.435 195.749 294.462 195.636 294.51 195.531C294.559 195.426 294.628 195.332 294.713 195.254C294.798 195.177 294.898 195.117 295.007 195.078C295.116 195.04 295.231 195.023 295.346 195.03C295.461 195.035 295.574 195.062 295.678 195.11C295.782 195.159 295.876 195.228 295.953 195.312C296.031 195.397 296.091 195.497 296.129 195.605C296.168 195.713 296.185 195.828 296.178 195.943L293.411 254.177C293.406 254.291 293.379 254.402 293.33 254.505C293.282 254.609 293.214 254.701 293.13 254.778C293.045 254.855 292.947 254.914 292.84 254.953C292.733 254.991 292.619 255.008 292.505 255.003V255.003Z" fill="#F6B391"></path> <path d="M288.082 256.925C287.967 256.92 287.854 256.893 287.749 256.845C287.645 256.796 287.552 256.728 287.474 256.643C287.397 256.558 287.337 256.458 287.298 256.35C287.26 256.242 287.243 256.127 287.249 256.012L290.196 193.561C290.2 193.446 290.227 193.332 290.275 193.227C290.323 193.123 290.392 193.029 290.478 192.951C290.563 192.873 290.663 192.813 290.772 192.775C290.88 192.736 290.996 192.72 291.111 192.727V192.727C291.226 192.73 291.339 192.757 291.444 192.805C291.548 192.853 291.642 192.922 291.72 193.007C291.798 193.092 291.857 193.192 291.896 193.301C291.934 193.409 291.95 193.525 291.943 193.64L288.996 256.091C288.992 256.206 288.966 256.32 288.917 256.424C288.869 256.529 288.8 256.623 288.715 256.701C288.629 256.778 288.529 256.838 288.421 256.877C288.312 256.915 288.197 256.932 288.082 256.925V256.925Z" fill="#F6B391"></path> <path d="M283.688 258.151C283.573 258.146 283.46 258.119 283.356 258.07C283.252 258.022 283.158 257.953 283.081 257.868C283.003 257.783 282.944 257.684 282.905 257.576C282.866 257.467 282.85 257.352 282.856 257.238L285.95 191.944C285.955 191.829 285.982 191.716 286.031 191.612C286.079 191.507 286.148 191.414 286.233 191.336C286.318 191.258 286.418 191.199 286.526 191.16C286.635 191.121 286.75 191.104 286.865 191.11V191.11C286.978 191.115 287.089 191.142 287.192 191.19C287.294 191.238 287.387 191.306 287.463 191.39C287.539 191.474 287.598 191.572 287.637 191.678C287.675 191.785 287.692 191.898 287.687 192.011L284.594 257.325C284.582 257.554 284.48 257.769 284.311 257.924C284.141 258.079 283.917 258.16 283.688 258.151Z" fill="#F6B391"></path> <path d="M279.323 258.778C279.208 258.775 279.095 258.748 278.99 258.7C278.886 258.652 278.792 258.583 278.714 258.498C278.636 258.413 278.577 258.313 278.538 258.204C278.5 258.096 278.484 257.98 278.491 257.865L281.656 190.918C281.661 190.803 281.689 190.69 281.737 190.586C281.786 190.482 281.855 190.388 281.94 190.311C282.025 190.233 282.125 190.173 282.233 190.134C282.341 190.095 282.456 190.078 282.571 190.084V190.084C282.685 190.089 282.796 190.117 282.898 190.165C283.001 190.213 283.093 190.281 283.17 190.364C283.246 190.448 283.305 190.546 283.343 190.653C283.382 190.759 283.399 190.873 283.393 190.986L280.227 257.955C280.221 258.068 280.194 258.179 280.146 258.282C280.097 258.385 280.029 258.477 279.946 258.554C279.862 258.63 279.763 258.689 279.657 258.728C279.55 258.766 279.437 258.783 279.323 258.778Z" fill="#F6B391"></path> <path d="M274.978 258.853C274.864 258.849 274.753 258.822 274.65 258.775C274.547 258.727 274.455 258.66 274.379 258.576C274.302 258.492 274.244 258.394 274.206 258.287C274.168 258.18 274.152 258.067 274.158 257.954L277.341 190.447C277.345 190.332 277.372 190.219 277.42 190.114C277.468 190.009 277.537 189.915 277.623 189.838C277.708 189.76 277.808 189.7 277.917 189.662C278.025 189.623 278.141 189.607 278.256 189.614C278.371 189.617 278.484 189.644 278.589 189.692C278.694 189.74 278.787 189.809 278.865 189.894C278.943 189.979 279.002 190.079 279.041 190.188C279.079 190.296 279.095 190.411 279.088 190.527L275.881 258.03C275.876 258.143 275.849 258.254 275.801 258.357C275.753 258.46 275.685 258.553 275.601 258.629C275.517 258.706 275.419 258.765 275.312 258.803C275.205 258.842 275.091 258.859 274.978 258.853Z" fill="#F6B391"></path> <path d="M270.662 258.387C270.547 258.382 270.435 258.355 270.33 258.306C270.226 258.258 270.132 258.189 270.055 258.104C269.978 258.02 269.918 257.92 269.879 257.812C269.841 257.703 269.824 257.589 269.83 257.474L273 190.527C273.004 190.412 273.031 190.298 273.079 190.194C273.127 190.089 273.196 189.995 273.282 189.917C273.367 189.839 273.467 189.78 273.575 189.741C273.684 189.703 273.8 189.686 273.915 189.693V189.693C274.028 189.698 274.139 189.725 274.242 189.773C274.344 189.821 274.437 189.889 274.513 189.973C274.589 190.057 274.648 190.155 274.687 190.261C274.725 190.368 274.742 190.481 274.737 190.595L271.566 257.563C271.561 257.677 271.534 257.788 271.486 257.891C271.437 257.994 271.369 258.086 271.285 258.163C271.201 258.239 271.103 258.299 270.996 258.337C270.889 258.375 270.776 258.392 270.662 258.387V258.387Z" fill="#F6B391"></path> <path d="M266.366 257.371C266.251 257.368 266.138 257.341 266.033 257.293C265.928 257.245 265.834 257.176 265.757 257.091C265.679 257.006 265.62 256.906 265.581 256.797C265.543 256.689 265.527 256.573 265.534 256.458L268.635 191.154C268.64 191.041 268.668 190.93 268.716 190.827C268.764 190.724 268.832 190.632 268.916 190.555C269 190.479 269.098 190.42 269.205 190.381C269.312 190.342 269.425 190.325 269.538 190.331C269.653 190.334 269.767 190.361 269.871 190.409C269.976 190.457 270.07 190.526 270.148 190.611C270.225 190.696 270.285 190.796 270.323 190.905C270.361 191.013 270.378 191.128 270.371 191.244L267.281 256.537C267.276 256.652 267.249 256.765 267.2 256.87C267.152 256.974 267.083 257.068 266.998 257.145C266.912 257.223 266.813 257.283 266.704 257.321C266.596 257.36 266.481 257.377 266.366 257.371V257.371Z" fill="#F6B391"></path> <path d="M262.116 255.75C262.001 255.747 261.887 255.72 261.783 255.672C261.678 255.624 261.584 255.555 261.507 255.47C261.429 255.385 261.369 255.285 261.331 255.176C261.293 255.068 261.277 254.952 261.284 254.837L264.23 192.386C264.234 192.271 264.261 192.158 264.309 192.053C264.358 191.948 264.427 191.854 264.512 191.776C264.597 191.699 264.697 191.639 264.806 191.6C264.915 191.562 265.03 191.545 265.145 191.552V191.552C265.26 191.557 265.373 191.584 265.477 191.632C265.581 191.681 265.675 191.749 265.752 191.834C265.83 191.919 265.89 192.019 265.928 192.127C265.967 192.235 265.984 192.35 265.977 192.465L263.031 254.916C263.026 255.031 262.999 255.144 262.95 255.249C262.901 255.353 262.832 255.447 262.747 255.524C262.662 255.602 262.563 255.662 262.454 255.7C262.346 255.739 262.231 255.756 262.116 255.75V255.75Z" fill="#F6B391"></path> <path d="M257.888 253.436C257.774 253.431 257.663 253.404 257.561 253.356C257.458 253.308 257.366 253.24 257.289 253.156C257.213 253.073 257.154 252.975 257.116 252.868C257.077 252.761 257.06 252.648 257.066 252.535L259.816 194.3C259.819 194.185 259.846 194.071 259.894 193.966C259.942 193.861 260.011 193.767 260.096 193.689C260.182 193.612 260.282 193.552 260.391 193.513C260.5 193.475 260.615 193.459 260.731 193.466V193.466C260.844 193.471 260.955 193.499 261.058 193.547C261.16 193.595 261.253 193.663 261.329 193.746C261.405 193.83 261.464 193.928 261.503 194.035C261.541 194.141 261.558 194.255 261.552 194.368L258.793 252.611C258.782 252.84 258.68 253.055 258.51 253.21C258.341 253.364 258.117 253.446 257.888 253.436V253.436Z" fill="#F6B391"></path> <path d="M253.701 250.286C253.586 250.282 253.473 250.254 253.369 250.206C253.265 250.158 253.171 250.089 253.094 250.004C253.016 249.919 252.957 249.82 252.918 249.711C252.879 249.603 252.863 249.488 252.869 249.373L255.35 197.059C255.354 196.944 255.381 196.83 255.429 196.726C255.478 196.621 255.547 196.527 255.632 196.449C255.717 196.371 255.817 196.312 255.926 196.273C256.035 196.235 256.15 196.218 256.265 196.225V196.225C256.379 196.23 256.49 196.257 256.593 196.305C256.696 196.352 256.788 196.42 256.864 196.504C256.941 196.588 257 196.686 257.038 196.793C257.076 196.9 257.093 197.013 257.087 197.127L254.607 249.461C254.595 249.69 254.493 249.905 254.324 250.06C254.154 250.214 253.93 250.296 253.701 250.286V250.286Z" fill="#F6B391"></path> <path d="M249.57 245.961C249.455 245.957 249.342 245.929 249.238 245.881C249.133 245.833 249.04 245.764 248.962 245.679C248.885 245.594 248.825 245.495 248.787 245.386C248.748 245.278 248.731 245.163 248.737 245.048L250.819 200.985C250.823 200.87 250.849 200.757 250.898 200.652C250.946 200.547 251.015 200.453 251.1 200.375C251.186 200.298 251.286 200.238 251.394 200.199C251.503 200.161 251.618 200.145 251.733 200.151V200.151C251.848 200.156 251.961 200.183 252.066 200.231C252.17 200.28 252.263 200.349 252.341 200.433C252.418 200.518 252.478 200.618 252.517 200.726C252.555 200.834 252.572 200.949 252.566 201.064L250.475 245.136C250.462 245.364 250.36 245.578 250.191 245.733C250.021 245.887 249.798 245.969 249.57 245.961V245.961Z" fill="#F6B391"></path> <path d="M245.539 239.652C245.424 239.647 245.311 239.62 245.207 239.572C245.102 239.523 245.009 239.455 244.931 239.37C244.854 239.285 244.794 239.185 244.756 239.077C244.717 238.969 244.7 238.854 244.706 238.739L246.21 206.917C246.215 206.802 246.242 206.689 246.291 206.585C246.339 206.481 246.408 206.387 246.493 206.31C246.579 206.232 246.678 206.172 246.787 206.133C246.895 206.094 247.01 206.077 247.125 206.083C247.24 206.087 247.353 206.114 247.458 206.162C247.563 206.21 247.657 206.279 247.734 206.364C247.812 206.449 247.871 206.549 247.91 206.657C247.948 206.766 247.964 206.881 247.957 206.996L246.444 238.826C246.433 239.055 246.331 239.271 246.161 239.425C245.992 239.58 245.768 239.661 245.539 239.652V239.652Z" fill="#F6B391"></path> <path d="M241.692 229.162C241.578 229.157 241.467 229.13 241.364 229.082C241.261 229.034 241.169 228.967 241.092 228.883C241.016 228.799 240.957 228.701 240.919 228.594C240.88 228.487 240.864 228.374 240.87 228.26L241.399 217.008C241.402 216.893 241.429 216.779 241.477 216.674C241.525 216.569 241.594 216.475 241.679 216.397C241.765 216.319 241.865 216.26 241.974 216.221C242.083 216.183 242.198 216.167 242.313 216.174V216.174C242.427 216.179 242.538 216.206 242.641 216.254C242.744 216.302 242.836 216.369 242.913 216.453C242.989 216.537 243.048 216.635 243.086 216.742C243.124 216.849 243.141 216.962 243.135 217.076L242.606 228.328C242.603 228.443 242.576 228.556 242.527 228.661C242.479 228.766 242.41 228.86 242.325 228.938C242.239 229.015 242.14 229.075 242.031 229.114C241.922 229.152 241.807 229.169 241.692 229.162V229.162Z" fill="#F6B391"></path> <path d="M210.287 271.187L204.595 270.709C204.511 270.702 204.425 270.712 204.345 270.74C204.264 270.767 204.19 270.811 204.128 270.868C204.065 270.926 204.014 270.995 203.98 271.073C203.945 271.151 203.926 271.234 203.925 271.319L203.862 277.032C203.861 277.117 203.842 277.201 203.807 277.279C203.773 277.357 203.722 277.426 203.659 277.484C203.597 277.541 203.523 277.585 203.442 277.612C203.362 277.64 203.276 277.65 203.192 277.643L197.497 277.18C197.413 277.173 197.328 277.184 197.248 277.212C197.168 277.239 197.094 277.283 197.032 277.34C196.969 277.397 196.919 277.466 196.884 277.543C196.849 277.621 196.831 277.704 196.829 277.789L196.772 283.508C196.771 283.593 196.752 283.677 196.718 283.755C196.683 283.833 196.633 283.902 196.57 283.96C196.507 284.017 196.433 284.061 196.352 284.088C196.272 284.116 196.186 284.126 196.102 284.119L190.401 283.649C190.317 283.642 190.232 283.653 190.152 283.681C190.072 283.708 189.998 283.752 189.935 283.809C189.873 283.866 189.823 283.935 189.788 284.012C189.753 284.09 189.735 284.173 189.733 284.258L189.67 289.971C189.669 290.056 189.65 290.14 189.615 290.217C189.581 290.295 189.53 290.364 189.467 290.422C189.404 290.479 189.33 290.523 189.25 290.55C189.169 290.578 189.084 290.588 188.999 290.582L183.305 290.118C183.22 290.111 183.135 290.122 183.055 290.149C182.974 290.177 182.9 290.221 182.837 290.278C182.774 290.335 182.724 290.405 182.689 290.482C182.654 290.56 182.636 290.644 182.635 290.729L182.589 295.786C182.588 295.871 182.57 295.955 182.535 296.033C182.5 296.11 182.45 296.18 182.387 296.237C182.324 296.295 182.25 296.338 182.169 296.366C182.089 296.393 182.004 296.404 181.919 296.397V296.397C181.74 296.38 181.574 296.297 181.453 296.164C181.332 296.031 181.264 295.858 181.263 295.678L181.323 289.313C181.324 289.228 181.342 289.144 181.377 289.066C181.412 288.989 181.462 288.919 181.525 288.862C181.588 288.804 181.662 288.761 181.743 288.733C181.823 288.706 181.908 288.695 181.993 288.702L187.688 289.165C187.772 289.172 187.858 289.162 187.938 289.134C188.019 289.107 188.093 289.063 188.155 289.006C188.218 288.948 188.269 288.879 188.303 288.801C188.338 288.723 188.357 288.64 188.358 288.555L188.421 282.842C188.423 282.757 188.441 282.674 188.476 282.596C188.511 282.519 188.561 282.45 188.624 282.393C188.686 282.336 188.76 282.292 188.84 282.265C188.92 282.237 189.005 282.226 189.089 282.233L194.8 282.677C194.885 282.684 194.97 282.674 195.05 282.646C195.131 282.619 195.205 282.575 195.268 282.518C195.331 282.46 195.381 282.391 195.416 282.313C195.451 282.235 195.469 282.151 195.47 282.066L195.534 276.354C195.535 276.269 195.553 276.185 195.588 276.108C195.623 276.031 195.673 275.962 195.736 275.905C195.798 275.848 195.872 275.804 195.952 275.777C196.032 275.749 196.117 275.738 196.201 275.745L201.889 276.214C201.974 276.221 202.059 276.211 202.139 276.183C202.22 276.156 202.294 276.112 202.357 276.055C202.42 275.997 202.47 275.928 202.505 275.85C202.54 275.773 202.558 275.689 202.559 275.604L202.623 269.891C202.624 269.806 202.642 269.722 202.677 269.644C202.712 269.567 202.762 269.497 202.825 269.44C202.888 269.382 202.962 269.338 203.042 269.311C203.123 269.284 203.208 269.273 203.293 269.28L208.978 269.752C209.063 269.758 209.147 269.747 209.227 269.72C209.308 269.692 209.381 269.649 209.444 269.592C209.506 269.535 209.557 269.465 209.591 269.388C209.626 269.311 209.645 269.227 209.646 269.143L209.694 264.083C209.695 263.998 209.714 263.915 209.748 263.837C209.783 263.759 209.834 263.69 209.896 263.632C209.959 263.575 210.033 263.531 210.114 263.504C210.194 263.476 210.28 263.466 210.364 263.473C210.543 263.491 210.708 263.575 210.829 263.707C210.95 263.84 211.018 264.012 211.02 264.192L210.973 270.562C210.974 270.649 210.957 270.736 210.922 270.817C210.887 270.898 210.836 270.97 210.771 271.029C210.706 271.088 210.629 271.133 210.546 271.16C210.462 271.187 210.374 271.197 210.287 271.187V271.187Z" fill="#F6E1AE"></path> <path d="M255.989 128.834C256.562 128.31 257.278 127.968 258.045 127.851C258.811 127.734 259.595 127.846 260.297 128.175C260.999 128.503 261.587 129.033 261.988 129.696C262.388 130.359 262.582 131.127 262.546 131.901C262.51 132.676 262.245 133.423 261.784 134.047C261.324 134.672 260.688 135.147 259.959 135.411C259.229 135.675 258.438 135.717 257.685 135.532C256.933 135.346 256.252 134.942 255.73 134.369C255.032 133.601 254.668 132.588 254.716 131.55C254.765 130.513 255.223 129.536 255.989 128.834V128.834ZM254.231 126.905C253.276 127.777 252.6 128.911 252.289 130.166C251.978 131.42 252.046 132.738 252.484 133.952C252.922 135.166 253.711 136.223 254.75 136.988C255.79 137.753 257.033 138.193 258.324 138.251C259.614 138.309 260.894 137.983 262 137.315C263.107 136.646 263.992 135.665 264.541 134.495C265.091 133.325 265.282 132.019 265.09 130.742C264.898 129.465 264.332 128.274 263.462 127.32C262.295 126.042 260.667 125.28 258.936 125.202C257.205 125.124 255.513 125.736 254.231 126.905V126.905Z" fill="#F2543B"></path> <path d="M149.976 143.023L154.501 142.934C156.177 142.903 156.311 140.294 154.625 140.314L150.097 140.4C148.417 140.431 148.285 143.042 149.974 143.02L149.976 143.023Z" fill="#F6E1AE"></path> <path d="M139.114 143.225L143.641 143.138C145.317 143.107 145.451 140.498 143.765 140.518C142.256 140.548 140.747 140.576 139.237 140.604C137.561 140.64 137.43 143.247 139.114 143.225Z" fill="#F6E1AE"></path> <path d="M145.622 144.885L145.7 149.411C145.73 151.089 148.342 151.216 148.32 149.53L148.243 145.003C148.213 143.33 145.603 143.201 145.622 144.885Z" fill="#F6E1AE"></path> <path d="M145.435 134.018L145.512 138.544C145.543 140.222 148.15 140.349 148.133 138.663C148.111 137.154 148.086 135.644 148.058 134.134C148.027 132.461 145.418 132.332 145.437 134.016L145.435 134.018Z" fill="#F6E1AE"></path> <path d="M201.377 232.128L103 243.082L201.377 254.035L299.755 243.082L201.377 232.128Z" fill="#FFCCAA"></path> <path d="M299.755 243.082V322.372L201.377 333.325V254.035L299.755 243.082Z" fill="#B84634"></path> <path d="M103 243.082L201.377 254.035V333.325L103 322.372V243.082Z" fill="#F58370"></path> <path d="M201.781 243.284C212.49 243.284 234.263 242.418 239.867 240.688C241.724 240.114 240.588 233.53 237.899 232.037C240.557 224.871 240.613 220.3 232.146 215.211C229.624 213.695 226.692 210.411 225.443 207.454C223.904 203.821 229.79 201.414 226.904 199.782C224.918 198.659 217.257 195.657 215.742 161.104C215.408 153.491 215.569 150.204 216.383 150.204C222.622 150.159 223.065 148.473 223.42 144.525C223.899 139.176 220.265 142.703 219.958 139.796C219.6 136.442 222.175 134.387 215.702 134.12C214.282 133.411 213.646 129.954 213.735 128.713C216.573 127.649 215.332 126.054 213.38 125.609C213.337 124.162 225.457 97.1489 224.835 92.3594C223.909 85.2115 214.783 85.7842 210.026 84.8256C211.329 81.1816 208.252 80.4791 205.946 80.2126C207.727 78.7678 208.961 78.0861 210.114 77.0219C209.401 74.3607 205.903 69.6976 205.903 68.7165C207.945 68.9622 212.653 71.2323 212.686 70.1007C212.786 66.9706 213.224 62.1015 212.859 59.6099C212.753 58.8953 207.632 60.9682 205.998 61.0357C207.011 58.7516 209.847 51.3927 210.204 50.5067C210.46 49.8631 204.97 47.9355 203.53 46.6603C205.68 45.5408 204.569 42.0352 201.784 42.0352C198.999 42.0352 197.883 45.5442 200.034 46.6724C198.593 47.9476 193.103 49.8752 193.361 50.5188C193.716 51.4048 196.554 58.7638 197.566 61.0478C195.933 60.9803 190.817 58.9074 190.706 59.622C190.341 62.1136 190.778 66.9827 190.879 70.1128C190.915 71.2462 195.619 68.976 197.663 68.7286C197.663 69.7028 194.164 74.3659 193.451 77.0341C194.603 78.0982 195.837 78.7799 197.62 80.2247C195.313 80.4912 192.237 81.1937 193.539 84.8377C188.781 85.7773 179.653 85.2098 178.728 92.3525C178.108 97.1419 190.228 124.155 190.185 125.602C188.233 126.047 186.992 127.642 189.839 128.706C189.927 129.947 189.29 133.404 187.871 134.113C181.398 134.38 183.972 136.435 183.615 139.789C183.304 142.696 179.669 139.169 180.154 144.518C180.508 148.471 180.95 150.152 187.189 150.197C188.006 150.197 188.165 153.484 187.831 161.098C186.315 195.65 178.658 198.645 176.668 199.775C173.781 201.407 179.669 203.81 178.13 207.447C176.879 210.404 173.947 213.688 171.427 215.204C162.961 220.293 163.016 224.865 165.675 232.03C162.985 233.53 161.848 240.114 163.707 240.681C169.304 242.424 191.069 243.284 201.781 243.284Z" fill="#FED160"></path> <path d="M201.552 243.408C212.263 243.408 234.263 242.428 239.867 240.696C241.724 240.122 240.588 233.538 237.899 232.045C240.557 224.88 240.612 220.308 232.146 215.219C229.624 213.703 226.692 210.419 225.443 207.462C223.904 203.829 229.79 201.422 226.904 199.79C224.918 198.667 217.257 195.665 215.742 161.113C215.408 153.499 215.569 150.212 216.383 150.212C222.622 150.167 223.065 148.481 223.42 144.533C223.899 139.184 220.265 142.711 219.958 139.804C219.6 136.45 222.175 134.395 215.702 134.128C214.281 133.419 213.646 129.962 213.735 128.721C216.573 127.657 215.332 126.062 213.38 125.617C213.337 124.171 225.457 97.157 224.835 92.3675C223.909 85.2196 214.783 85.7923 210.026 84.8337C211.329 81.1897 208.252 80.4872 205.946 80.2207C207.727 78.7759 208.961 78.0942 210.114 77.03C209.401 74.3688 205.903 69.7057 205.903 68.7246C207.945 68.9703 212.653 71.2404 212.686 70.1088C212.786 66.9787 213.224 62.1096 212.859 59.618C212.753 58.9034 207.632 60.9763 205.998 61.0437C207.011 58.7597 209.847 51.4008 210.204 50.5148C210.46 49.8729 204.972 47.9436 203.53 46.6684C203.769 46.8795 204.501 45.6302 204.555 45.4796C204.718 44.9405 204.689 44.3614 204.474 43.841C203.932 42.4447 202.632 42.0484 201.27 42C200.817 43.4777 202.739 45.1422 201.879 46.4261C201.687 46.7151 201.384 46.9089 201.164 47.1771C200.728 47.71 200.68 48.4523 200.664 49.1427C200.533 54.3873 201.01 59.6266 201.49 64.8504C201.774 67.935 202.056 71.0201 202.338 74.1058C202.488 75.7375 202.561 77.5976 201.414 78.7673C200.424 79.7743 198.911 79.9785 197.606 80.2484C198.503 80.3522 199.406 80.1221 200.309 80.1429C201.213 80.1636 202.213 80.5426 202.528 81.3921C202.812 82.1777 202.355 83.0792 201.682 83.5671C201.009 84.0551 200.152 84.2212 199.328 84.3544C197.736 84.6122 196.13 84.7974 194.52 84.9064C196.347 84.8668 198.175 84.9321 199.994 85.1019C200.995 85.1936 202.028 85.3303 202.88 85.8615C204.411 86.8149 204.956 88.7546 205.289 90.5334C206.529 97.1685 206.565 103.973 205.394 110.62C204.844 113.752 203.956 116.803 203.041 119.833C202.643 121.133 201.985 122.338 201.105 123.375C200.224 124.411 199.142 125.257 197.923 125.859H201.557C201.936 125.859 202.36 125.878 202.616 126.155C202.925 126.486 202.821 127.051 202.514 127.384C202.208 127.716 201.756 127.866 201.322 127.994C199.824 128.43 198.29 128.725 196.737 128.877C195.479 129.003 194.281 128.775 193.027 128.863C192.773 128.863 192.525 128.93 192.307 129.059C192.2 129.126 192.121 129.229 192.082 129.349C192.044 129.469 192.048 129.599 192.096 129.716C192.573 130.597 195.2 130.436 195.993 130.645C196.699 130.83 197.378 131.266 197.675 131.934C197.761 132.097 197.788 132.284 197.751 132.464C197.677 132.655 197.54 132.816 197.364 132.921C196.707 133.391 195.941 133.683 195.138 133.77C194.901 133.775 194.666 133.823 194.446 133.912C194.337 133.959 194.247 134.042 194.191 134.147C194.136 134.252 194.118 134.373 194.141 134.49C194.236 134.795 194.64 134.836 194.96 134.836C196.199 134.839 197.435 134.973 198.646 135.234C199.562 135.419 200.678 135.459 201.336 136.236C201.609 136.604 201.809 137.02 201.928 137.463C202.029 137.723 202.094 137.995 202.122 138.272C202.165 139.07 201.566 139.793 200.846 140.139C200.126 140.486 199.3 140.534 198.501 140.558C197.701 140.582 196.883 140.598 196.138 140.89C195.943 140.967 195.721 141.145 195.801 141.337C195.865 141.489 196.066 141.51 196.228 141.51H198.515C200.638 141.51 203.063 141.837 203.792 144.213C204.191 145.514 203.619 146.981 202.611 147.895C201.604 148.808 200.232 149.234 198.878 149.367C197.525 149.5 196.159 149.367 194.799 149.305C192.994 149.222 187.436 149.845 187.663 150.447C187.867 150.994 187.9 151.99 187.952 152.926C188.011 153.994 188.014 155.577 187.98 156.764C187.904 159.36 199.229 158.737 204.908 166.537C209.43 172.754 211.164 182.172 212.205 192.48C213.385 204.178 192.907 203.38 187.037 203.071C177.507 202.576 173.859 204.692 192.263 210.016C201.978 212.828 213.523 215.14 217.611 220.621C218.894 222.339 230.391 237.658 171.228 233.031C162.748 232.368 164.702 240.861 176.701 242.375C178.8 242.639 180.533 242.759 182.113 242.844C188.574 243.184 195.065 243.408 201.552 243.408Z" fill="#DD8F1E"></path> </svg> 